<?xml version="1.0" encoding="UTF-8" standalone="no"?>
<svg
   xmlns:dc="http://purl.org/dc/elements/1.1/"
   xmlns:cc="http://creativecommons.org/ns#"
   xmlns:rdf="http://www.w3.org/1999/02/22-rdf-syntax-ns#"
   xmlns:svg="http://www.w3.org/2000/svg"
   xmlns="http://www.w3.org/2000/svg"
   xmlns:sodipodi="http://sodipodi.sourceforge.net/DTD/sodipodi-0.dtd"
   xmlns:inkscape="http://www.inkscape.org/namespaces/inkscape"
   version="1.1"
   id="Capa_1"
   x="0px"
   y="0px"
   viewBox="0 0 469.346 469.346"
   style="enable-background:new 0 0 469.346 469.346;"
   xml:space="preserve"
   sodipodi:docname="dna.svg"
   inkscape:version="1.0.1 (1.0.1+r73)"><metadata
   id="metadata71"><rdf:RDF><cc:Work
       rdf:about=""><dc:format>image/svg+xml</dc:format><dc:type
         rdf:resource="http://purl.org/dc/dcmitype/StillImage" /><dc:title></dc:title></cc:Work></rdf:RDF></metadata><defs
   id="defs69" /><sodipodi:namedview
   pagecolor="#ffffff"
   bordercolor="#666666"
   borderopacity="1"
   objecttolerance="10"
   gridtolerance="10"
   guidetolerance="10"
   inkscape:pageopacity="0"
   inkscape:pageshadow="2"
   inkscape:window-width="1848"
   inkscape:window-height="1016"
   id="namedview67"
   showgrid="false"
   inkscape:zoom="1.3870364"
   inkscape:cx="234.673"
   inkscape:cy="205.83454"
   inkscape:window-x="72"
   inkscape:window-y="147"
   inkscape:window-maximized="1"
   inkscape:current-layer="g34" />
<g
   id="g34">
	<rect
   style="font-variation-settings:normal;opacity:1;vector-effect:none;fill:#501616;fill-opacity:1;fill-rule:evenodd;stroke-width:0.999999;stroke-linecap:butt;stroke-linejoin:miter;stroke-miterlimit:4;stroke-dasharray:none;stroke-dashoffset:0;stroke-opacity:1;stop-color:#000000;stop-opacity:1"
   id="rect914"
   width="470.41281"
   height="471.1987"
   x="-0.29187855"
   y="-0.52289957" /><path
   style="fill:#28fd98;fill-opacity:1"
   d="M132.418,260.425c5.891-5.891,15.442-5.891,21.333,0l55.164,55.164   c5.891,5.891,5.891,15.442,0,21.333c0,0,0,0,0,0c-5.891,5.891-15.442,5.891-21.333,0l-55.164-55.164   C126.527,275.867,126.527,266.316,132.418,260.425z"
   id="path18" />
	<path
   style="fill:#28fd98;fill-opacity:1"
   d="M47.088,345.755c5.891-5.891,15.442-5.891,21.333,0l55.164,55.164   c5.891,5.891,5.891,15.442,0,21.333c0,0,0,0,0,0c-5.891,5.891-15.442,5.891-21.333,0l-55.164-55.164   C41.197,361.197,41.197,351.646,47.088,345.755z"
   id="path20" />
	<path
   style="fill:#28fd98;fill-opacity:1"
   d="M4.418,388.425c5.891-5.891,15.442-5.891,21.333,0l55.164,55.164c5.891,5.891,5.891,15.442,0,21.333   c-5.891,5.891-15.442,5.891-21.333,0l0,0L4.418,409.758C-1.473,403.867-1.473,394.316,4.418,388.425z"
   id="path22" />
	<path
   style="fill:#28fd98;fill-opacity:1"
   d="M260.419,132.426l0.007-0.007c5.889-5.889,15.437-5.889,21.326,0l55.169,55.169   c5.889,5.889,5.889,15.437,0,21.326l-0.007,0.007c-5.889,5.889-15.437,5.889-21.326,0l-55.169-55.169   C254.53,147.863,254.53,138.315,260.419,132.426z"
   id="path24" />
	<path
   style="fill:#28fd98;fill-opacity:1"
   d="M345.746,47.097l0.007-0.007c5.889-5.889,15.437-5.889,21.326,0l55.169,55.169   c5.889,5.889,5.889,15.437,0,21.326l-0.007,0.007c-5.889,5.889-15.437,5.889-21.326,0l-55.169-55.169   C339.857,62.534,339.857,52.986,345.746,47.097z"
   id="path26" />
	<path
   style="fill:#28fd98;fill-opacity:1"
   d="M388.419,4.424c5.891-5.891,15.442-5.891,21.333,0l55.164,55.164c5.891,5.891,5.891,15.442,0,21.333   l0,0c-5.891,5.891-15.442,5.891-21.333,0l-55.164-55.164C382.528,19.867,382.528,10.315,388.419,4.424z"
   id="path28" />
	<path
   style="fill:#28fd98;fill-opacity:1"
   d="M153.755,196.421c5.891-5.891,15.442-5.891,21.333,0c0,0,0,0,0,0l97.831,97.831   c5.891,5.891,5.891,15.442,0,21.333l0,0c-5.891,5.891-15.442,5.891-21.333,0l-97.831-97.831   C147.864,211.864,147.864,202.312,153.755,196.421L153.755,196.421z"
   id="path30" />
	<path
   style="fill:#28fd98;fill-opacity:1"
   d="M196.416,153.767l0.007-0.007c5.889-5.889,15.437-5.889,21.326,0l97.836,97.836   c5.889,5.889,5.889,15.437,0,21.326l-0.007,0.007c-5.889,5.889-15.437,5.889-21.326,0l-97.836-97.836   C190.527,169.204,190.527,159.656,196.416,153.767z"
   id="path32" />
</g><path
   style="fill:#2c99e9;fill-opacity:1"
   d="M448,149.34H341.333c-11.782,0.007-21.339-9.538-21.346-21.32s9.538-21.339,21.32-21.346  c0.009,0,0.017,0,0.026,0H448c11.782-0.007,21.339,9.538,21.346,21.32s-9.538,21.339-21.32,21.346  C448.017,149.34,448.009,149.34,448,149.34z"
   id="path2" />
<g
   id="g8"
   style="fill:#2153b9;fill-opacity:1">
	<path
   style="fill:#2153b9;fill-opacity:1"
   d="M220.646,362.673H128c-11.782,0-21.333-9.551-21.333-21.333s9.551-21.333,21.333-21.333h92.646   c16.987,0.049,33.288-6.699,45.271-18.74l35.333-35.354c11.963-12.027,18.7-28.287,18.75-45.25v-92.656   c0-11.782,9.551-21.333,21.333-21.333c11.782,0,21.333,9.551,21.333,21.333v92.656c0.072,28.303-11.181,55.459-31.25,75.417   l-35.333,35.354C276.119,351.504,248.955,362.753,220.646,362.673L220.646,362.673z"
   id="path4" />
	<path
   style="fill:#2153b9;fill-opacity:1"
   d="M128,362.673H21.333C9.551,362.673,0,353.122,0,341.34s9.551-21.333,21.333-21.333H128   c11.782,0,21.333,9.551,21.333,21.333S139.782,362.673,128,362.673z"
   id="path6" />
</g>
<g
   id="g14">
	<path
   style="fill:#2c99e9;fill-opacity:1"
   d="M128,469.34c-11.779,0.003-21.33-9.543-21.333-21.322c0-0.004,0-0.007,0-0.011V341.34   c0-11.782,9.551-21.333,21.333-21.333c11.782,0,21.333,9.551,21.333,21.333v106.667c0.003,11.779-9.543,21.33-21.322,21.333   C128.007,469.34,128.004,469.34,128,469.34z"
   id="path10" />
	<path
   style="fill:#2c99e9;fill-opacity:1"
   d="M128,362.673c-11.779,0.003-21.33-9.543-21.333-21.322c0-0.004,0-0.007,0-0.011v-92.656   c-0.072-28.303,11.181-55.459,31.25-75.417l35.333-35.354c19.965-20.07,47.129-31.319,75.437-31.24h92.646   c11.782,0.007,21.328,9.564,21.32,21.346c-0.007,11.772-9.548,21.313-21.32,21.32h-92.646c-16.987-0.049-33.288,6.699-45.271,18.74   l-35.333,35.354c-11.963,12.027-18.7,28.287-18.75,45.25v92.656c0.003,11.779-9.543,21.33-21.322,21.333   C128.007,362.673,128.004,362.673,128,362.673L128,362.673z"
   id="path12" />
</g>
<path
   style="fill:#2153b9;fill-opacity:1"
   d="M341.333,170.673c-11.779,0.003-21.33-9.543-21.333-21.322c0-0.004,0-0.007,0-0.011v-128  c0-11.782,9.551-21.333,21.333-21.333c11.782,0,21.333,9.551,21.333,21.333v128c0.003,11.779-9.543,21.33-21.322,21.333  C341.341,170.673,341.337,170.673,341.333,170.673z"
   id="path16" />

<g
   id="g36">
</g>
<g
   id="g38">
</g>
<g
   id="g40">
</g>
<g
   id="g42">
</g>
<g
   id="g44">
</g>
<g
   id="g46">
</g>
<g
   id="g48">
</g>
<g
   id="g50">
</g>
<g
   id="g52">
</g>
<g
   id="g54">
</g>
<g
   id="g56">
</g>
<g
   id="g58">
</g>
<g
   id="g60">
</g>
<g
   id="g62">
</g>
<g
   id="g64">
</g>
</svg>
